<?xml version="1.0" encoding="UTF-8" standalone="no"?>
<!DOCTYPE svg PUBLIC "-//W3C//DTD SVG 1.1//EN" "http://www.w3.org/Graphics/SVG/1.1/DTD/svg11.dtd">
<svg width="100%" height="100%" viewBox="0 0 177 589" version="1.1" xmlns="http://www.w3.org/2000/svg" xmlns:xlink="http://www.w3.org/1999/xlink" xml:space="preserve" xmlns:serif="http://www.serif.com/" style="fill-rule:evenodd;clip-rule:evenodd;stroke-linejoin:round;stroke-miterlimit:2;">
    <g id="logo_6by6" transform="matrix(1.67872,0,0,1.67872,-414.082,-5888.74)">
        <g>
            <g transform="matrix(0.785673,0,0,3.15205,-269.562,2168.85)">
                <rect x="657.052" y="530.834" width="133.478" height="5.288"/>
            </g>
            <g transform="matrix(2.0513,0,0,2.0513,-1143.37,3487.23)">
                <g transform="matrix(72,0,0,72,676.701,63.346)">
                    <path d="M0.425,-0.466C0.334,-0.466 0.256,-0.434 0.211,-0.38C0.208,-0.527 0.279,-0.602 0.388,-0.602C0.467,-0.602 0.516,-0.568 0.544,-0.509L0.687,-0.552C0.647,-0.68 0.54,-0.74 0.387,-0.74C0.165,-0.74 0.047,-0.583 0.047,-0.358C0.047,-0.135 0.15,0.016 0.378,0.016C0.564,0.016 0.689,-0.082 0.689,-0.234C0.689,-0.37 0.597,-0.466 0.425,-0.466ZM0.379,-0.127C0.306,-0.127 0.25,-0.156 0.24,-0.214C0.23,-0.292 0.299,-0.336 0.393,-0.336C0.477,-0.336 0.528,-0.292 0.528,-0.231C0.528,-0.168 0.477,-0.127 0.379,-0.127Z" style="fill-rule:nonzero;"/>
                </g>
                <g transform="matrix(29.6255,0,0,29.6255,680.526,97.8769)">
                    <path d="M0.615,-0.378C0.672,-0.41 0.708,-0.467 0.708,-0.529C0.708,-0.645 0.633,-0.724 0.454,-0.724L0.084,-0.724L0.084,0L0.463,0C0.648,0 0.736,-0.078 0.736,-0.207C0.736,-0.287 0.698,-0.35 0.615,-0.378ZM0.43,-0.586C0.518,-0.586 0.545,-0.558 0.545,-0.508C0.545,-0.456 0.516,-0.427 0.428,-0.427L0.246,-0.427L0.246,-0.586L0.43,-0.586ZM0.46,-0.138L0.246,-0.138L0.246,-0.304L0.458,-0.304C0.534,-0.304 0.571,-0.28 0.571,-0.223C0.571,-0.165 0.536,-0.138 0.46,-0.138Z" style="fill-rule:nonzero;"/>
                </g>
                <g transform="matrix(29.6255,0,0,29.6255,703.485,97.8769)">
                    <path d="M0.547,-0.724L0.547,-0.529C0.547,-0.414 0.502,-0.344 0.379,-0.344C0.256,-0.344 0.212,-0.414 0.212,-0.529L0.212,-0.724L0.049,-0.724L0.049,-0.528C0.049,-0.354 0.133,-0.233 0.293,-0.203L0.293,0L0.455,0L0.455,-0.201C0.622,-0.229 0.709,-0.35 0.709,-0.528L0.709,-0.724L0.547,-0.724Z" style="fill-rule:nonzero;"/>
                </g>
                <g transform="matrix(72,0,0,72,676.701,160.845)">
                    <path d="M0.425,-0.466C0.334,-0.466 0.256,-0.434 0.211,-0.38C0.208,-0.527 0.279,-0.602 0.388,-0.602C0.467,-0.602 0.516,-0.568 0.544,-0.509L0.687,-0.552C0.647,-0.68 0.54,-0.74 0.387,-0.74C0.165,-0.74 0.047,-0.583 0.047,-0.358C0.047,-0.135 0.15,0.016 0.378,0.016C0.564,0.016 0.689,-0.082 0.689,-0.234C0.689,-0.37 0.597,-0.466 0.425,-0.466ZM0.379,-0.127C0.306,-0.127 0.25,-0.156 0.24,-0.214C0.23,-0.292 0.299,-0.336 0.393,-0.336C0.477,-0.336 0.528,-0.292 0.528,-0.231C0.528,-0.168 0.477,-0.127 0.379,-0.127Z" style="fill-rule:nonzero;"/>
                </g>
            </g>
        </g>
    </g>
</svg>
